<svg xmlns="http://www.w3.org/2000/svg" viewBox="0 0 1200 630" width="1200" height="630">
  <rect width="1200" height="630" fill="#fafaf8"/>
  
  <!-- Subtle grid pattern -->
  <pattern id="grid" width="40" height="40" patternUnits="userSpaceOnUse">
    <path d="M 40 0 L 0 0 0 40" fill="none" stroke="#e8e8e5" stroke-width="0.5"/>
  </pattern>
  <rect width="1200" height="630" fill="url(#grid)"/>

  <!-- German Word Maker text -->
  <text x="600" y="220" font-family="-apple-system, BlinkMacSystemFont, 'Segoe UI', sans-serif" font-size="72" font-weight="500" fill="#1a1a1a" text-anchor="middle">German Word Maker</text>
  
  <!-- Subtitle -->
  <text x="600" y="290" font-family="-apple-system, BlinkMacSystemFont, 'Segoe UI', sans-serif" font-size="28" font-weight="400" fill="#888" text-anchor="middle">Invent a new German word for anything.</text>

  <!-- Divider -->
  <line x1="500" y1="340" x2="700" y2="340" stroke="#e0e0dc" stroke-width="1"/>

  <!-- "An experiment by" text -->
  <text x="600" y="400" font-family="-apple-system, BlinkMacSystemFont, 'Segoe UI', sans-serif" font-size="20" font-weight="400" fill="#aaa" text-anchor="middle">An experiment by</text>

  <!-- Frame Weave logo scaled and centered -->
  <g transform="translate(232, 420) scale(1.0)">
    <g id="frame" fill="#555">
      <path d="M395.02,2.23c23.16-.08,46.32-.16,69.48-.23v20l-47.07-.18v17.67h42.37v18.94h-42.37v18.94h47.23v19.58h-69.63V2.23Z"/>
      <path d="M384.91,37.66v59.78s-22.4,0-22.4,0v-61.57c0-8.58-4.1-15.36-14.08-15.36-9.09,0-13.82,5.5-13.82,15.36v61.57s-20.35,0-20.35,0v-61.57c0-9.86-5.25-15.36-13.95-15.36-10.11,0-14.08,6.78-14.08,15.36v61.57s-22.4,0-22.4,0v-59.78c0-23.43,10.75-36.48,33.28-36.48,12.8,0,21.12,4.35,27.27,13.44,6.14-9.09,14.46-13.44,27.27-13.44,22.53,0,33.28,13.06,33.28,36.48Z"/>
      <path d="M169.98,42.79c0-26.24,15.36-41.09,41.73-41.09s41.47,14.85,41.47,41.09v55.17h-22.4v-24.96h-38.4v24.96h-22.4v-55.17ZM230.78,53.41v-10.62c0-13.57-6.66-21.51-19.07-21.51s-19.33,7.94-19.33,21.51v10.62h38.4Z"/>
      <path d="M143.03,67c4.35,7.81,7.81,10.24,16.64,12.16v18.31c-17.02,0-25.86-4.35-34.18-19.2l-5.25-9.34h-16.77v28.03h-22.4V2.23h40.58c22.27,0,37.25,11.65,37.25,33.54,0,12.54-7.55,22.27-18.18,27.14l2.3,4.1ZM103.48,21.43v28.8h17.02c8.32,0,14.98-4.61,14.98-14.46s-6.66-14.34-14.72-14.34h-17.28Z"/>
      <path d="M3.64,2.23h68.48v19.58H26.04v17.67h41.99v18.94H26.04v38.53H3.64V2.23Z"/>
    </g>
    <g id="weave" fill="#555">
      <path d="M662.02,103.23c23.16-.08,46.32-.16,69.48-.23v19c-15.69.27-31.38.55-47.07.82v17.67h42.37v18.94h-42.37v18.94h47.23v19.58h-69.63v-94.72Z"/>
      <path d="M559.16,103.23h24.07l15.23,43.78c3.84,10.88,6.4,18.69,8.32,25.22,2.56-6.91,4.99-14.08,8.83-25.73l14.21-43.27h24.07l-38.27,94.72h-17.92l-38.53-94.72Z"/>
      <path d="M475.84,142.79c0-26.24,15.36-41.09,41.73-41.09s41.47,14.85,41.47,41.09v55.17h-22.4v-24.96h-38.4v24.96h-22.4v-55.17ZM536.64,153.41v-10.62c0-13.57-6.66-21.51-19.07-21.51s-19.33,7.94-19.33,21.51v10.62h38.4Z"/>
      <path d="M395.02,103.23c23.16-.08,46.32-.16,69.48-.23v19c-15.69.27-31.38.55-47.07.82v17.67h42.37v18.94h-42.37v18.94h47.23v19.58h-69.63v-94.72Z"/>
      <path d="M263.76,162.01v-59.78h22.4v61.57c0,8.58,4.1,15.36,14.08,15.36,9.09,0,13.82-5.5,13.82-15.36v-61.57h20.35v61.57c0,9.86,5.25,15.36,13.95,15.36,10.11,0,14.08-6.78,14.08-15.36v-61.57h22.4v59.78c0,23.43-10.75,36.48-33.28,36.48-12.8,0-21.12-4.35-27.27-13.44-6.14,9.09-14.46,13.44-27.27,13.44-22.53,0-33.28-13.06-33.28-36.48Z"/>
    </g>
  </g>
</svg>
